<?xml version="1.0" encoding="UTF-8" standalone="no"?>
<!-- Created with Inkscape (http://www.inkscape.org/) -->

<svg
   xmlns:dc="http://purl.org/dc/elements/1.1/"
   xmlns:cc="http://creativecommons.org/ns#"
   xmlns:rdf="http://www.w3.org/1999/02/22-rdf-syntax-ns#"
   xmlns:svg="http://www.w3.org/2000/svg"
   xmlns="http://www.w3.org/2000/svg"
   xmlns:sodipodi="http://sodipodi.sourceforge.net/DTD/sodipodi-0.dtd"
   xmlns:inkscape="http://www.inkscape.org/namespaces/inkscape"
   width="116.68395mm"
   height="175.63211mm"
   viewBox="0 0 116.68396 175.63211"
   version="1.1"
   id="svg8"
   inkscape:version="0.92.3 (2405546, 2018-03-11)"
   sodipodi:docname="FMDV.svg"
   inkscape:export-filename="/home/hyperion/Pictures/FMDV.png"
   inkscape:export-xdpi="300"
   inkscape:export-ydpi="300">
  <sodipodi:namedview
     id="base"
     pagecolor="#ffffff"
     bordercolor="#666666"
     borderopacity="1.0"
     inkscape:pageopacity="0.0"
     inkscape:pageshadow="2"
     inkscape:zoom="0.98994949"
     inkscape:cx="283.17632"
     inkscape:cy="179.19018"
     inkscape:document-units="mm"
     inkscape:current-layer="layer1"
     showgrid="true"
     fit-margin-top="0"
     fit-margin-left="0"
     fit-margin-right="0"
     fit-margin-bottom="0"
     inkscape:window-width="3840"
     inkscape:window-height="2089"
     inkscape:window-x="0"
     inkscape:window-y="0"
     inkscape:window-maximized="1">
    <inkscape:grid
       type="xygrid"
       id="grid2371"
       originx="-124.21065"
       originy="-124.21064" />
  </sodipodi:namedview>
  <defs
     id="defs2">
    <filter
       inkscape:collect="always"
       style="color-interpolation-filters:sRGB"
       id="filter855"
       x="-5.0963855"
       width="11.192771"
       y="-0.68006432"
       height="2.3601286">
      <feGaussianBlur
         inkscape:collect="always"
         stdDeviation="47.106252"
         id="feGaussianBlur857" />
    </filter>
  </defs>
  <metadata
     id="metadata5">
    <rdf:RDF>
      <cc:Work
         rdf:about="">
        <dc:format>image/svg+xml</dc:format>
        <dc:type
           rdf:resource="http://purl.org/dc/dcmitype/StillImage" />
        <dc:title />
      </cc:Work>
    </rdf:RDF>
  </metadata>
  <g
     inkscape:label="Layer 1"
     inkscape:groupmode="layer"
     id="layer1"
     transform="translate(-43.227959,-36.178582)">
    <path
       id="path10"
       d="m 146.29724,143.93627 c -8.63155,-11.12605 -8.79758,-23.81906 -4.28854,-35.0272 -9.55567,9.35937 -14.93621,20.9317 -11.17893,32.61665 0.47679,1.48617 0.78255,2.94208 1.00621,4.42852 l 0.0856,1.79246 -0.5331,0.19629 -2.269,-5.1853 c -3.2239,-8.82495 -3.69913,-18.12959 -0.53285,-27.68552 6.30467,-18.717432 -1.93245,-37.045164 -16.95259,-51.783237 6.92144,17.820411 6.2773,38.082177 -7.73297,56.016787 -2.69107,3.41888 -4.903764,6.89407 -6.668594,10.45136 l -1.066214,2.35268 0.08526,-0.6152 c 2.829464,-12.0486 -3.33495,-22.97835 -13.591344,-31.21546 5.323704,10.67505 6.137049,23.34252 -1.597481,35.39111 -6.473858,12.44014 -8.127648,27.88209 -3.054709,39.34337 7.931088,16.56106 18.467981,24.1827 32.787442,24.57425 2.07243,0.0273 4.20302,-0.0547 6.38966,-0.33629 11.68494,-1.26093 26.2846,-6.9746 30.99153,-20.50962 4.6506,-11.60496 6.86487,-23.48778 -1.8793,-34.80565 z"
       inkscape:connector-curvature="0"
       style="stroke-width:0.26313287" />
    <rect
       style="opacity:0.078;fill:#020000;fill-opacity:0;stroke:#0f0000;stroke-width:0.26458332;stroke-opacity:1;filter:url(#filter855)"
       id="rect829"
       width="22.183371"
       height="166.24164"
       x="32.072342"
       y="56.724693" />
    <rect
       style="opacity:1;fill:#e1121a;fill-opacity:1;stroke:#0f0000;stroke-width:0.28706273;stroke-opacity:1"
       id="rect2357"
       width="24.721769"
       height="175.34505"
       x="43.37149"
       y="36.322113" />
    <rect
       style="opacity:1;fill:#005200;fill-opacity:0.84027782;stroke:#0f0000;stroke-width:0.24753441;stroke-opacity:1"
       id="rect2361"
       width="89.752464"
       height="24.752464"
       x="70.035683"
       y="36.30677" />
    <g
       id="g51"
       transform="matrix(1.6099653,0,0,1.6099653,26.43562,106.77945)">
      <g
         word-spacing="normal"
         letter-spacing="normal"
         font-size-adjust="none"
         font-stretch="normal"
         font-weight="normal"
         font-variant="normal"
         font-style="normal"
         stroke-miterlimit="10.433"
         xml:space="preserve"
         transform="matrix(0.16669136,0,0,-0.16669136,-29.170987,131.72408)"
         id="content"
         style="font-style:normal;font-variant:normal;font-weight:normal;font-stretch:normal;letter-spacing:normal;word-spacing:normal;text-anchor:start;fill:none;fill-opacity:1;fill-rule:evenodd;stroke:#000000;stroke-linecap:butt;stroke-linejoin:miter;stroke-miterlimit:10.43299961;stroke-dasharray:none;stroke-dashoffset:0;stroke-opacity:1"><path
           id="path42"
           d="m 464.04,419.9 h 6.78 c 0,-2.04 0,-2.84 1.73,-2.84 1.7,0 1.7,1.09 1.7,2.05 v 4.62 c 0,0.95 0,2.05 -1.7,2.05 -1.73,0 -1.73,-0.8 -1.73,-2.85 h -6.78 v 10.68 h 12.45 v -2.65 c 0,-0.95 0,-2.04 1.7,-2.04 1.74,0 1.74,1.04 1.74,2.04 v 3.63 c 0,1.55 -0.3,2.05 -1.99,2.05 h -18.98 c -0.8,0 -2.05,0 -2.05,-1.55 0,-1.48 1.3,-1.48 2.05,-1.48 h 1.64 v -24.36 h -1.64 c -0.8,0 -2.05,0 -2.05,-1.55 0,-1.5 1.3,-1.5 2.05,-1.5 h 7.67 c 0.75,0 2,0 2,1.5 0,1.55 -1.2,1.55 -2,1.55 h -2.59 z"
           inkscape:connector-curvature="0"
           style="fill:#000000;stroke-width:0" /><path
           id="path44"
           d="m 496.13,424.59 -0.11,-0.33 -0.11,-0.33 -0.11,-0.32 -0.1,-0.31 -0.09,-0.3 -0.1,-0.3 -0.08,-0.3 -0.09,-0.29 -0.08,-0.28 -0.08,-0.29 -0.07,-0.28 -0.08,-0.27 -0.06,-0.28 -0.07,-0.27 -0.11,-0.54 h -0.07 c -0.48,2.35 -4.87,15.25 -4.97,15.55 -0.5,1.19 -1.75,1.19 -2.45,1.19 h -2.78 c -0.75,0 -2,0 -2,-1.49 0,-1.54 1.05,-1.54 2.64,-1.54 v -24.36 c -1.59,0 -2.64,0 -2.64,-1.55 0,-1.5 1.25,-1.5 2,-1.5 h 4.08 c 0.75,0 2,0 2,1.5 0,1.55 -1.05,1.55 -2.64,1.55 V 433 H 488 c 0.55,-2.29 3.74,-11.85 3.94,-12.5 0.39,-1.14 1.05,-3.04 1.3,-3.39 0.3,-0.4 0.89,-0.75 1.48,-0.75 0.66,0 1.35,0.4 1.75,1.1 0.16,0.3 4.39,12.9 4.99,15.54 h 0.04 v -23.75 c -1.59,0 -2.64,0 -2.64,-1.55 0,-1.5 1.25,-1.5 2,-1.5 h 4.08 c 0.75,0 2,0 2,1.5 0,1.55 -1.05,1.55 -2.64,1.55 v 24.36 c 1.59,0 2.64,0 2.64,1.54 0,1.49 -1.25,1.49 -2,1.49 h -2.78 c -2.05,0 -2.25,-0.69 -2.7,-1.99 z"
           inkscape:connector-curvature="0"
           style="fill:#000000;stroke-width:0" /><path
           id="path46"
           d="m 510.82,436.64 h -0.08 -0.08 -0.08 l -0.08,-0.01 h -0.17 l -0.08,-0.01 -0.09,-0.01 -0.08,-0.01 -0.09,-0.01 -0.08,-0.02 -0.09,-0.01 -0.08,-0.03 -0.08,-0.02 -0.08,-0.03 -0.08,-0.04 -0.07,-0.03 -0.08,-0.05 -0.07,-0.05 -0.06,-0.05 -0.07,-0.06 -0.05,-0.07 -0.03,-0.03 -0.03,-0.04 -0.02,-0.04 -0.03,-0.04 -0.02,-0.04 -0.03,-0.04 -0.02,-0.05 -0.02,-0.04 -0.01,-0.05 -0.02,-0.05 -0.02,-0.05 -0.01,-0.06 -0.01,-0.06 -0.01,-0.05 -0.01,-0.07 -0.01,-0.06 -0.01,-0.06 v -0.07 -0.07 -0.07 c 0,-1.48 1.28,-1.48 2.03,-1.48 h 1.09 v -24.36 h -1.09 c -0.8,0 -2.03,0 -2.03,-1.55 0,-1.5 1.28,-1.5 2.03,-1.5 h 10.26 c 6.53,0 10.91,6.97 10.91,15 0,7.97 -4.28,15.44 -10.91,15.44 l -0.93,-3.03 c 5.62,0 8.4,-6.63 8.4,-12.41 0,-5.83 -2.87,-11.95 -8.4,-11.95 h -4.8 v 24.36 h 4.8 l 0.93,3.03 z"
           inkscape:connector-curvature="0"
           style="fill:#000000;stroke-width:0" /><path
           id="path48"
           d="m 556.36,433.61 h 0.17 0.16 0.15 0.16 0.14 l 0.15,0.01 h 0.13 l 0.14,0.01 0.13,0.01 0.12,0.01 0.12,0.02 0.11,0.02 0.11,0.02 0.1,0.02 0.1,0.03 0.1,0.04 0.08,0.04 0.09,0.04 0.07,0.05 0.08,0.05 0.06,0.06 0.06,0.07 0.06,0.07 0.05,0.08 0.04,0.08 0.04,0.09 0.04,0.1 0.01,0.06 0.01,0.05 0.01,0.06 0.01,0.06 0.01,0.06 0.01,0.06 v 0.06 l 0.01,0.07 v 0.07 0.07 c 0,1.49 -1.28,1.49 -2.03,1.49 h -5.09 c -0.74,0 -2.04,0 -2.04,-1.49 0,-1.54 1.05,-1.54 2.79,-1.54 l -3.83,-15.25 c -0.66,-2.65 -1.59,-6.43 -1.96,-8.57 h -0.04 c -0.25,1.74 -0.44,2.58 -0.89,4.42 l -4.83,19.4 c 1.73,0 2.78,0 2.78,1.54 0,1.49 -1.3,1.49 -2.05,1.49 h -5.07 c -0.75,0 -2.05,0 -2.05,-1.49 0,-1.54 1.05,-1.54 2.84,-1.54 l 6.58,-25.91 c 0.5,-1.91 1.3,-1.91 2.73,-1.91 1.35,0 2.3,0 2.75,1.85 z"
           inkscape:connector-curvature="0"
           style="fill:#000000;stroke-width:0" /></g>    </g>
  </g>
</svg>
